<?xml version="1.0" standalone="no"?>
<!DOCTYPE svg PUBLIC "-//W3C//DTD SVG 20010904//EN"
 "http://www.w3.org/TR/2001/REC-SVG-20010904/DTD/svg10.dtd">
<svg version="1.0" xmlns="http://www.w3.org/2000/svg"
 width="160.000000pt" height="184.000000pt" viewBox="0 0 160.000000 184.000000"
 preserveAspectRatio="xMidYMid meet">

<g transform="translate(0.000000,184.000000) scale(0.100000,-0.100000)"
fill="#000000" stroke="none">
<path d="M278 1808 c-16 -17 -28 -32 -28 -34 0 -2 -25 -29 -56 -59 -41 -41
-54 -60 -49 -74 3 -11 1 -22 -5 -26 -10 -6 -14 -45 -4 -45 3 0 13 8 22 18 10
10 14 13 11 7 -3 -5 -9 -23 -12 -40 -4 -16 -4 -24 -1 -17 10 21 26 13 21 -11
-4 -12 -2 -29 3 -37 8 -13 10 -12 10 3 0 9 4 17 8 17 8 0 32 -178 32 -234 0
-16 4 -43 9 -60 43 -140 62 -343 36 -393 l-15 -28 0 32 c0 42 -16 51 -23 14
-6 -29 -5 -36 8 -96 6 -27 5 -28 -8 -13 -17 22 -27 13 -27 -23 0 -15 -6 -34
-12 -41 -7 -7 -24 -36 -37 -63 -14 -28 -39 -73 -58 -102 -18 -28 -33 -54 -33
-56 0 -3 21 6 48 20 42 23 45 24 25 5 -12 -12 -26 -22 -30 -22 -4 0 -24 -14
-43 -31 -19 -17 -43 -37 -53 -44 -14 -10 -17 -24 -15 -64 l3 -51 73 54 c39 30
72 52 72 47 0 -10 -88 -93 -122 -115 -28 -18 -28 -19 -28 -132 l0 -114 144 0
144 0 35 39 c55 60 60 109 33 311 -10 74 -21 152 -23 173 -4 32 -1 43 21 66
26 27 26 28 10 67 -14 34 -15 47 -4 104 21 108 24 111 49 63 11 -23 21 -51 21
-62 0 -24 30 -91 41 -91 4 0 30 16 59 35 67 45 90 50 157 35 46 -10 57 -10 64
1 6 10 2 17 -11 23 -24 11 -26 24 -5 32 8 4 15 10 15 15 0 6 -7 6 -18 0 -29
-15 -132 -40 -132 -31 0 4 -10 6 -23 3 -19 -4 -19 -2 5 11 15 9 41 14 59 12
19 -2 38 2 44 9 17 21 71 35 84 22 8 -8 11 -8 11 0 0 7 9 15 20 18 11 3 20 9
20 13 0 11 -189 12 -195 1 -4 -5 -16 -9 -29 -9 -12 0 -33 -11 -46 -25 -22 -24
-42 -27 -66 -12 -7 4 -15 0 -18 -9 -3 -8 -2 -12 4 -9 6 4 7 -1 3 -11 -4 -12
-3 -15 5 -10 7 4 12 2 12 -4 0 -24 -20 -3 -83 86 -75 107 -89 140 -80 200 5
40 12 49 36 45 5 -1 24 3 43 8 19 5 32 6 29 1 -3 -4 1 -13 9 -19 32 -27 58
140 32 201 -9 22 -32 48 -54 62 -32 21 -43 23 -85 17 l-49 -8 7 91 c8 101 29
157 75 201 17 16 30 25 30 21 0 -4 10 2 22 14 28 25 63 26 85 0 9 -11 20 -15
23 -10 9 15 25 -2 70 -75 78 -128 76 -115 30 -155 -22 -19 -40 -39 -40 -44 0
-5 -8 -15 -17 -22 -17 -11 -16 -13 10 -23 19 -8 27 -17 27 -35 0 -14 10 -33
23 -43 12 -10 23 -25 25 -33 7 -31 45 -50 94 -46 53 4 109 -12 166 -47 44 -27
87 -45 122 -49 37 -5 83 -98 78 -158 -5 -47 -55 -170 -69 -170 -5 0 -9 -4 -9
-9 0 -15 -61 -72 -71 -65 -5 3 -9 2 -9 -3 0 -4 -23 -24 -50 -43 -27 -19 -50
-39 -50 -43 0 -16 34 -66 48 -72 8 -3 16 3 19 14 3 11 12 22 21 25 10 4 28 13
42 21 28 16 43 10 19 -8 -22 -17 -32 -47 -15 -47 8 0 16 5 18 11 2 6 5 -18 6
-53 4 -89 8 -127 16 -135 10 -10 7 -53 -4 -53 -5 0 -10 -9 -10 -20 0 -11 -6
-20 -12 -20 -7 0 0 -7 16 -15 16 -9 35 -14 42 -11 7 3 14 0 17 -7 2 -8 9 -6
21 6 25 24 33 21 10 -4 -29 -32 -110 -89 -127 -89 -9 0 -23 -7 -32 -16 -18
-18 -78 -12 -95 9 -5 7 -23 28 -39 48 -30 36 -32 53 -5 42 8 -3 14 0 14 6 0
10 -21 16 -42 12 -5 0 -8 4 -8 9 0 6 4 10 9 10 4 0 4 20 -2 45 -6 25 -14 45
-19 45 -4 0 -8 -3 -8 -7 -3 -73 -25 -164 -50 -211 -16 -32 -41 -81 -55 -109
l-25 -53 485 0 485 0 0 308 0 307 -28 32 c-15 17 -40 53 -57 80 -25 41 -30 45
-33 26 -2 -13 -7 -23 -11 -23 -11 0 -31 79 -24 96 3 8 0 14 -6 14 -6 0 -10 3
-10 8 4 22 -3 34 -15 29 -10 -4 -13 -1 -10 7 7 20 -14 139 -26 146 -7 4 -9 19
-5 36 5 22 4 25 -4 14 -25 -35 -3 -252 29 -284 5 -5 10 -24 9 -40 0 -17 -3
-24 -6 -16 -15 46 -15 46 -23 25 l-9 -20 -1 20 c-3 33 -7 57 -23 132 -9 39
-14 82 -11 95 l5 23 -12 -22 c-7 -13 -16 -23 -21 -23 -4 0 -8 10 -9 23 0 12
-4 31 -8 42 -7 17 -12 12 -35 -33 -15 -30 -29 -52 -31 -50 -2 2 5 35 16 73 10
38 18 92 18 120 -1 27 -3 42 -6 33 -6 -24 -23 -23 -23 2 0 11 5 20 10 20 6 0
10 7 10 16 0 8 -4 12 -10 9 -6 -4 -10 7 -10 26 0 34 -43 113 -89 163 -14 16
-20 26 -13 22 20 -12 14 10 -10 30 -12 10 -18 13 -13 5 5 -10 4 -12 -3 -7 -7
4 -12 16 -12 27 0 10 -6 19 -14 19 -18 0 -69 99 -96 190 -12 41 -29 90 -38
108 l-15 32 -311 0 -311 -1 -27 -31z m493 -10 c8 -15 8 -18 0 -14 -6 4 -16 16
-22 28 -8 15 -8 18 0 14 6 -4 16 -16 22 -28z m24 -83 c37 -49 70 -96 72 -102
3 -7 9 -13 14 -13 6 0 5 10 -1 23 -8 16 -4 14 15 -8 l26 -30 -15 35 c-28 70
-26 83 4 26 36 -70 141 -228 179 -270 14 -16 21 -27 15 -25 -20 7 -93 77 -124
120 -16 23 -30 39 -30 36 0 -9 59 -108 86 -144 35 -46 20 -41 -26 8 l-39 42
12 -35 c7 -19 20 -46 30 -62 10 -15 16 -33 14 -41 -3 -7 0 -18 6 -25 8 -8 4
-8 -13 1 -31 17 -150 135 -150 148 0 5 23 -14 51 -42 28 -29 47 -45 43 -37
-17 31 -65 100 -75 105 -5 4 -7 10 -4 15 3 5 -13 48 -35 96 -22 48 -40 95 -40
104 0 10 -20 49 -45 87 -25 37 -45 72 -45 77 0 12 -2 14 75 -89z m-30 -161
c22 -31 51 -69 64 -86 13 -16 21 -32 17 -35 -3 -4 -7 -4 -9 -2 -7 9 -104 155
-111 167 -18 31 3 7 39 -44z m265 -51 c0 -7 19 -36 43 -65 47 -59 71 -94 41
-63 -56 59 -134 179 -134 206 1 17 50 -61 50 -78z m-700 -192 c0 -5 -7 -14
-15 -21 -8 -7 -15 -22 -16 -34 0 -20 -1 -20 -10 2 -10 27 4 62 26 62 8 0 15
-4 15 -9z m410 -1 c0 -5 -4 -10 -10 -10 -5 0 -10 5 -10 10 0 6 5 10 10 10 6 0
10 -4 10 -10z m-390 -52 c-12 -10 -25 -16 -28 -13 -8 8 32 43 42 37 5 -3 -1
-14 -14 -24z m15 -28 c-10 -11 -20 -18 -23 -15 -7 6 18 35 31 35 5 0 2 -9 -8
-20z m29 -36 c4 -9 4 -19 2 -21 -8 -8 -26 8 -26 23 0 19 16 18 24 -2z m843
-116 c-3 -7 -5 -2 -5 12 0 14 2 19 5 13 2 -7 2 -19 0 -25z m91 -189 c8 -35 15
-95 17 -134 2 -54 1 -61 -5 -30 l-7 40 -3 -45 c-3 -49 -3 -47 -19 55 -21 139
-23 187 -9 183 7 -3 18 -33 26 -69z m160 -200 c-3 -8 -7 -3 -11 10 -4 17 -3
21 5 13 5 -5 8 -16 6 -23z"/>
<path d="M931 1560 c14 -31 19 -36 19 -24 0 6 -7 19 -16 30 -14 18 -14 18 -3
-6z"/>
<path d="M1260 1486 c0 -2 8 -10 18 -17 15 -13 16 -12 3 4 -13 16 -21 21 -21
13z"/>
<path d="M1280 1415 c1 -6 7 -21 16 -35 l15 -25 -7 25 c-7 26 -24 52 -24 35z"/>
<path d="M1333 1115 c0 -27 2 -38 4 -22 2 15 2 37 0 50 -2 12 -4 0 -4 -28z"/>
<path d="M572 1017 c-9 -10 -4 -13 20 -15 38 -3 70 6 63 19 -9 14 -71 11 -83
-4z"/>
<path d="M445 984 c1 -20 7 -39 15 -44 22 -14 79 -12 95 3 11 11 7 17 -20 31
-18 10 -38 15 -44 12 -6 -4 -11 -1 -11 7 0 12 -19 27 -33 27 -1 0 -2 -16 -2
-36z"/>
<path d="M610 594 c0 -13 -8 -15 -36 -12 -36 4 -36 4 -15 -13 21 -17 21 -19 5
-44 -9 -14 -23 -24 -30 -21 -16 6 -19 -10 -4 -19 5 -3 14 -20 19 -38 7 -24 9
-27 10 -10 1 21 2 22 39 6 20 -8 40 -20 43 -25 5 -7 18 -5 37 5 28 14 32 13
47 -3 19 -21 55 -33 55 -18 0 6 12 8 30 5 39 -8 46 6 10 21 -23 10 -33 26 -48
75 l-20 62 -1 -62 c-1 -68 -9 -75 -49 -47 -17 12 -22 25 -22 58 0 36 -4 45
-21 49 -11 3 -23 15 -26 26 -6 25 -23 28 -23 5z"/>
<path d="M836 545 c8 -37 53 -135 53 -117 1 7 -6 28 -13 47 -14 33 -13 39 7
36 4 0 7 3 7 8 0 5 8 12 18 14 9 3 0 5 -20 6 -24 1 -41 7 -48 19 -8 13 -9 11
-4 -13z"/>
</g>
</svg>
